<?xml version="1.0" standalone="no"?><!DOCTYPE svg PUBLIC "-//W3C//DTD SVG 1.1//EN" "http://www.w3.org/Graphics/SVG/1.1/DTD/svg11.dtd"><svg t="1673934441752" class="icon" viewBox="0 0 1126 1024" version="1.1" xmlns="http://www.w3.org/2000/svg" p-id="1209" xmlns:xlink="http://www.w3.org/1999/xlink" width="70.375" height="64"><path d="M1076.736 908.032c0 14.4896-2.4576 28.0064-7.3216 40.6016a100.4544 100.4544 0 0 1-52.7872 55.4496 113.7664 113.7664 0 0 1-42.9056 9.3184H175.6672c-14.3872 0-50.0736-3.9936-62.9248-9.3184a107.2128 107.2128 0 0 1-57.2928-55.4496 97.9968 97.9968 0 0 1-8.4992-40.6016V337.2544c0-29.0304 10.0352-53.6064 30.0032-73.7792 19.968-20.1728 44.1344-22.4768 72.9088-22.4768h823.8592c28.7744 0 52.9408 2.2528 72.9088 22.4768 20.0704 20.224 30.0544 44.7488 30.0544 73.728v161.2288h-257.3312c-28.7744 0-53.0944 4.1984-73.1648 24.064-19.968 19.8144-30.0032 44.1856-30.0032 73.216 0.7168 19.8144 4.9152 37.376 12.4928 52.5824 6.0416 12.9536 16.0768 24.7808 30.0544 35.4304 13.9776 10.7008 34.2528 20.6336 60.672 20.6336h257.536l-0.2048 203.6736zM922.2656 189.5424H407.3472c40.9088-21.3504 79.616-50.8928 115.9168-70.7584 31.7952-16.7936 63.1808-33.536 94.1056-50.3296 30.976-16.8448 55.1936-29.696 72.6016-38.912 26.4192-14.4896 50.0736-21.0944 70.912-19.968 20.7872 1.0752 38.4 4.7616 52.736 10.8032 16.64 8.3968 30.976 19.456 43.1104 33.28l65.536 135.8848z m-154.0096 406.1696c0-14.4896 4.9664-26.7264 14.7456-36.5568a49.0496 49.0496 0 0 1 36.352-14.8992c14.3872 0 26.4192 4.9152 36.352 14.848a50.0736 50.0736 0 0 1 14.6944 36.608c0 14.4896-4.9152 26.9312-14.7456 37.1712a48.3328 48.3328 0 0 1-36.352 15.4624 48.4864 48.4864 0 0 1-36.3008-15.4624 52.0704 52.0704 0 0 1-14.7456-37.1712z" fill="#f7cc8d" p-id="1210"></path></svg>