<?xml version="1.0" ?>
<svg height="100%" id="svg31" 
style="fill-rule:evenodd;clip-rule:evenodd;stroke-linejoin:round;stroke-miterlimit:2;" 
version="1.1" viewBox="0 0 64 64" width="100%" xml:space="preserve" 
xmlns="http://www.w3.org/2000/svg" 
xmlns:cc="http://creativecommons.org/ns#"
 xmlns:dc="http://purl.org/dc/elements/1.1/" 
 xmlns:inkscape="http://www.inkscape.org/namespaces/inkscape"
  xmlns:rdf="http://www.w3.org/1999/02/22-rdf-syntax-ns#"
   xmlns:sodipodi="http://sodipodi.sourceforge.net/DTD/sodipodi-0.dtd"
    xmlns:svg="http://www.w3.org/2000/svg">
    <defs id="defs35"/><path 
    d="m 27.000761,40.600546 c 0,7.454073 7.125772,13.599709 15.9998,13.599709 1.878006,0 3.739512,-0.28 5.498267,-0.82638 -7.5e-4,0 4.387514,3.416008 4.387514,3.416008 0.338251,0.263352 0.807002,0.281515 1.164754,0.04541 0.357751,-0.236109 0.525751,-0.673515 0.417001,-1.088219 l -1.230004,-4.69039 c 3.657011,-2.585087 5.762268,-6.41807 5.762268,-10.456134 0,-7.454072 -7.125772,-13.599709 -15.9998,-13.599709 -8.874028,0 -15.9998,6.145637 -15.9998,13.599709 z m 1.999506,0 c 0,-6.454394 6.31652,-11.600353 14.000294,-11.600353 7.683774,0 14.000294,5.145959 14.000294,11.600353 0,3.608225 -2.032507,6.993963 -5.449517,9.180239 -0.365251,0.233838 -0.537752,0.676542 -0.428252,1.096543 l 0.660753,2.520006 c 0,0 -2.477258,-1.928221 -2.477258,-1.928221 -0.266251,-0.208108 -0.620252,-0.266379 -0.939753,-0.156649 -1.702505,0.587245 -3.525761,0.888435 -5.366267,0.888435 -7.683774,0 -14.000294,-5.145959 -14.000294,-11.600353 z" id="path4" style="stroke-width:0.753373;fill:#ffffff"/><path d="m 20.000463,16.000513 c -2.207623,0 -3.999996,1.792348 -3.999996,3.999975 0,2.207626 1.792373,3.999975 3.999996,3.999975 2.207623,0 3.999996,-1.792349 3.999996,-3.999975 0,-2.207627 -1.792373,-3.999975 -3.999996,-3.999975 z m 0,1.999923 c 1.103874,0 1.999998,0.896175 1.999998,2.000052 0,1.103877 -0.896124,2.000051 -1.999998,2.000051 -1.103874,0 -1.999998,-0.896174 -1.999998,-2.000051 0,-1.103877 0.896124,-2.000052 1.999998,-2.000052 z" id="path8" style="stroke-width:0.126323;fill:#ffffff"/>
    <path d="m 34.000506,16.000513 c -2.207623,0 -3.999996,1.792348 -3.999996,3.999975 0,2.207626 1.792373,3.999975 3.999996,3.999975 2.207623,0 3.999996,-1.792349 3.999996,-3.999975 0,-2.207627 -1.792373,-3.999975 -3.999996,-3.999975 z m 0,1.999923 c 1.103874,0 1.999998,0.896175 1.999998,2.000052 0,1.103877 -0.896124,2.000051 -1.999998,2.000051 -1.103874,0 -1.999998,-0.896174 -1.999998,-2.000051 0,-1.103877 0.896124,-2.000052 1.999998,-2.000052 z" id="path12" style="stroke-width:0.126323;fill:#ffffff"/><path d="m 38.000519,34.000554 c -1.655755,0 -3.000009,1.344258 -3.000009,3.000008 0,1.655749 1.344254,3.000008 3.000009,3.000008 1.655755,0 3.000009,-1.344259 3.000009,-3.000008 0,-1.65575 -1.344254,-3.000008 -3.000009,-3.000008 z m 0,2.000005 c 0.551918,0 1.000003,0.448086 1.000003,1.000003 0,0.551916 -0.448085,1.000002 -1.000003,1.000002 -0.551918,0 -1.000003,-0.448086 -1.000003,-1.000002 0,-0.551917 0.448085,-1.000003 1.000003,-1.000003 z" id="path16" style="stroke-width:0.0842154;fill:#ffffff"/><path d="m 48.00055,34.000554 c -1.655755,0 -3.000009,1.344258 -3.000009,3.000008 0,1.655749 1.344254,3.000008 3.000009,3.000008 1.655755,0 3.000009,-1.344259 3.000009,-3.000008 0,-1.65575 -1.344254,-3.000008 -3.000009,-3.000008 z m 0,2.000005 c 0.551918,0 1.000003,0.448086 1.000003,1.000003 0,0.551916 -0.448085,1.000002 -1.000003,1.000002 -0.551918,0 -1.000003,-0.448086 -1.000003,-1.000002 0,-0.551917 0.448085,-1.000003 1.000003,-1.000003 z" id="path20" style="stroke-width:0.0842154;fill:#ffffff"/><path d="m 28.909945,44.928998 c -0.630002,0.047 -1.267004,0.071 -1.910006,0.071 -2.658008,0 -5.292016,-0.416002 -7.774024,-1.224004 l -6.304019,5.007015 c -0.336001,0.267001 -0.806003,0.290001 -1.166004,0.056 -0.361001,-0.234001 -0.531002,-0.672003 -0.425001,-1.088004 0,0 1.799005,-6.999022 1.799005,-6.999022 C 7.9818802,37.142974 4.999871,31.723957 4.999871,25.99994 c 0,-10.441033 9.81903,-19.0000592 22.000068,-19.0000592 12.181038,0 22.000068,8.5590262 22.000068,19.0000592 0,1.004003 -0.091,1.991006 -0.266,2.955009 -0.624002,-0.217001 -1.269004,-0.400001 -1.933006,-0.546002 0.131,-0.786002 0.199,-1.591005 0.199,-2.409007 0,-9.42803 -9.001028,-17.000053 -20.000062,-17.000053 -10.999034,0 -20.0000618,7.572023 -20.0000618,17.000053 0,5.295016 2.907009,10.272032 7.8210238,13.481041 0.359002,0.234001 0.528002,0.671003 0.422002,1.086004 0,0 -1.233004,4.798015 -1.233004,4.798015 l 4.399014,-3.494011 c 0.269,-0.214001 0.629002,-0.275001 0.954003,-0.161001 2.423007,0.852003 5.018015,1.290004 7.637023,1.290004 0.425002,0 0.846003,-0.011 1.265004,-0.034 0.153001,0.676002 0.370001,1.332004 0.645002,1.963006 z" id="path24" style="stroke-width:1;fill:#ffffff"/></svg>